<?xml version="1.0" encoding="UTF-8"?>
<!-- Generator: Adobe Illustrator 21.1.0, SVG Export Plug-In . SVG Version: 6.00 Build 0)  -->
<svg version="1.1" id="Icons" xmlns="http://www.w3.org/2000/svg" xmlns:xlink="http://www.w3.org/1999/xlink" x="0px" y="0px" viewBox="0 0 48 48" style="enable-background:new 0 0 48 48;" xml:space="preserve">
<style type="text/css">
	.st0{opacity:0.15;fill:#45413C;}
	.st1{fill:#BF8256;}
	.st2{fill:#915E3A;}
	.st3{fill:none;stroke:#45413C;stroke-linecap:round;stroke-linejoin:round;stroke-miterlimit:10;}
	.st4{fill:#DEA47A;}
	.st5{fill:#DAEDF7;stroke:#45413C;stroke-linecap:round;stroke-linejoin:round;stroke-miterlimit:10;}
	.st6{fill:#BF8256;stroke:#45413C;stroke-linecap:round;stroke-linejoin:round;stroke-miterlimit:10;}
	.st7{fill:#FF6242;}
	.st8{fill:#FF866E;}
	.st9{fill:#DEBB7E;}
	.st10{fill:#B89558;}
	.st11{fill:#656769;}
	.st12{fill:#525252;}
	.st13{fill:#E04122;}
	.st14{fill:#FFFFFF;}
	.st15{fill:#F0F0F0;}
	.st16{fill:#00B8F0;}
	.st17{fill:#4ACFFF;}
	.st18{fill:#C0DCEB;}
	.st19{fill:#8CA4B8;}
	.st20{fill:#FF6242;stroke:#45413C;stroke-linecap:round;stroke-linejoin:round;stroke-miterlimit:10;}
	.st21{fill:#87898C;}
	.st22{fill:#E0E0E0;}
	.st23{fill:#E8F4FA;stroke:#45413C;stroke-linecap:round;stroke-linejoin:round;stroke-miterlimit:10;}
	.st24{fill:#656769;stroke:#45413C;stroke-linecap:round;stroke-linejoin:round;stroke-miterlimit:10;}
	.st25{fill:#DAEDF7;}
	.st26{fill:#E8F4FA;}
	.st27{fill:#ADC4D9;stroke:#45413C;stroke-linecap:round;stroke-linejoin:round;stroke-miterlimit:10;}
	.st28{fill:#87898C;stroke:#45413C;stroke-linecap:round;stroke-linejoin:round;stroke-miterlimit:10;}
	.st29{fill:#BDBEC0;}
	.st30{fill:#FFFFFF;stroke:#45413C;stroke-linecap:round;stroke-linejoin:round;stroke-miterlimit:10;}
	.st31{fill:#ADC4D9;}
	.st32{fill:none;stroke:#00AED9;stroke-linecap:round;stroke-linejoin:round;stroke-miterlimit:10;}
	.st33{fill:#FFFACF;}
	.st34{fill:#FFE500;}
	.st35{fill:#915E3A;stroke:#45413C;stroke-linecap:round;stroke-linejoin:round;stroke-miterlimit:10;}
	.st36{fill:#FFAA54;}
	.st37{fill:#627B8C;stroke:#45413C;stroke-linecap:round;stroke-linejoin:round;stroke-miterlimit:10;}
	.st38{fill:#FFFEF2;}
	.st39{fill:#FFFCE5;stroke:#45413C;stroke-linecap:round;stroke-linejoin:round;stroke-miterlimit:10;}
	.st40{fill:#00F5BC;}
	.st41{fill:#FFFCE5;}
	.st42{fill:#FFFEF2;stroke:#45413C;stroke-linecap:round;stroke-linejoin:round;stroke-miterlimit:10;}
	.st43{fill:#8CFFE4;}
	.st44{fill:#FFF5E3;}
	.st45{fill:#F7E5C6;}
	.st46{fill:#F7E5C6;stroke:#45413C;stroke-linecap:round;stroke-linejoin:round;stroke-miterlimit:10;}
	.st47{fill:#F0D5A8;}
	.st48{fill:#FF87AF;stroke:#45413C;stroke-linecap:round;stroke-linejoin:round;stroke-miterlimit:10;}
	.st49{fill:#45413C;}
	.st50{fill:#BDBEC0;stroke:#45413C;stroke-linecap:round;stroke-linejoin:round;stroke-miterlimit:10;}
	.st51{fill:#E0E0E0;stroke:#45413C;stroke-linecap:round;stroke-linejoin:round;stroke-miterlimit:10;}
	.st52{fill:#DEBB7E;stroke:#45413C;stroke-linecap:round;stroke-linejoin:round;stroke-miterlimit:10;}
	.st53{fill:#F5EBFF;stroke:#45413C;stroke-linecap:round;stroke-linejoin:round;stroke-miterlimit:10;}
	.st54{fill:#BF8DF2;stroke:#45413C;stroke-linecap:round;stroke-linejoin:round;stroke-miterlimit:10;}
	.st55{fill:#E4FFD1;stroke:#45413C;stroke-linecap:round;stroke-linejoin:round;stroke-miterlimit:10;}
	.st56{fill:#F0FFE5;}
	.st57{fill:#C8FFA1;stroke:#45413C;stroke-linecap:round;stroke-linejoin:round;stroke-miterlimit:10;}
	.st58{fill:#6DD627;stroke:#45413C;stroke-linecap:round;stroke-linejoin:round;stroke-miterlimit:10;}
	.st59{fill:#E5FEFF;}
	.st60{fill:#FFAA54;stroke:#45413C;stroke-linecap:round;stroke-linejoin:round;stroke-miterlimit:10;}
	.st61{fill:#9CEB60;stroke:#45413C;stroke-linecap:round;stroke-linejoin:round;stroke-miterlimit:10;}
	.st62{fill:#FFF48C;}
	.st63{fill:#00B8F0;stroke:#45413C;stroke-linecap:round;stroke-linejoin:round;stroke-miterlimit:10;}
	.st64{fill:none;stroke:#4F4B45;stroke-linejoin:round;stroke-miterlimit:10;}
	.st65{fill:#FFFFFF;stroke:#4F4B45;stroke-linejoin:round;stroke-miterlimit:10;}
	.st66{fill:#FFF5E3;stroke:#4F4B45;stroke-linejoin:round;stroke-miterlimit:10;}
	.st67{fill:#F7E5C6;stroke:#4F4B45;stroke-linejoin:round;stroke-miterlimit:10;}
	.st68{fill:#6DD627;}
	.st69{fill:#EBCB00;}
	.st70{fill:#46B000;}
	.st71{fill:none;stroke:#E0E0E0;stroke-linecap:round;stroke-linejoin:round;stroke-miterlimit:10;}
	.st72{fill:#9CEB60;}
	.st73{fill:#FFCC99;}
	.st74{fill:#BF8DF2;}
	.st75{fill:#9F5AE5;}
	.st76{fill:#DABFF5;}
	.st77{fill:#F0F0F0;stroke:#45413C;stroke-linecap:round;stroke-linejoin:round;stroke-miterlimit:10;}
	.st78{fill:#E5F8FF;}
	.st79{fill:#B8ECFF;}
	.st80{fill:#D9FDFF;}
	.st81{fill:#C0DCEB;stroke:#45413C;stroke-linecap:round;stroke-linejoin:round;stroke-miterlimit:10;}
	.st82{fill:#46B000;stroke:#45413C;stroke-linecap:round;stroke-linejoin:round;stroke-miterlimit:10;}
	.st83{fill:none;stroke:#FFFFFF;stroke-miterlimit:10;}
	.st84{fill:none;stroke:#FFFFFF;stroke-linecap:round;stroke-linejoin:round;stroke-miterlimit:10;}
	.st85{fill:#FFE500;stroke:#45413C;stroke-linecap:round;stroke-linejoin:round;stroke-miterlimit:10;}
	.st86{fill:#80DDFF;stroke:#45413C;stroke-linecap:round;stroke-linejoin:round;stroke-miterlimit:10;}
	.st87{fill:#FFFFFF;stroke:#45413C;stroke-linejoin:round;stroke-miterlimit:10;}
	.st88{fill:#009FD9;stroke:#45413C;stroke-linecap:round;stroke-linejoin:round;stroke-miterlimit:10;}
	.st89{fill:#E04122;stroke:#45413C;stroke-linecap:round;stroke-linejoin:round;stroke-miterlimit:10;}
	.st90{fill:#009FD9;}
	.st91{fill:#FFFFFF;stroke:#45413C;stroke-miterlimit:10;}
	.st92{fill:#009FD9;stroke:#45413C;stroke-miterlimit:10;}
	.st93{fill:#FF8A14;stroke:#45413C;stroke-linecap:round;stroke-linejoin:round;stroke-miterlimit:10;}
	.st94{fill:none;stroke:#009FD9;stroke-linecap:round;stroke-linejoin:round;stroke-miterlimit:10;}
	.st95{fill:#525252;stroke:#45413C;stroke-linecap:round;stroke-linejoin:round;stroke-miterlimit:10;}
	.st96{fill:none;stroke:#46B000;stroke-linecap:round;stroke-linejoin:round;stroke-miterlimit:10;}
	.st97{fill:none;stroke:#E04122;stroke-linecap:round;stroke-linejoin:round;stroke-miterlimit:10;}
	.st98{fill:#6DD627;stroke:#45413C;stroke-miterlimit:10;}
	.st99{fill:none;stroke:#45413C;stroke-linejoin:round;stroke-miterlimit:10;}
	.st100{fill:#46B000;stroke:#45413C;stroke-miterlimit:10;}
	.st101{fill:#00DFEB;}
	.st102{fill:#00AD85;}
	.st103{fill:#E04122;stroke:#45413C;stroke-miterlimit:10;}
</style>
<g id="XMLID_17086_">
	
		<rect id="XMLID_17114_" x="26.5" y="6.1" transform="matrix(0.8774 0.4798 -0.4798 0.8774 7.4737 -12.6263)" class="st27" width="4" height="4.5"/>
	
		<ellipse id="XMLID_17113_" transform="matrix(0.4798 -0.8774 0.8774 0.4798 2.1879 29.4615)" class="st18" cx="25.9" cy="12.9" rx="5.2" ry="5.2"/>
	<path id="XMLID_17112_" class="st25" d="M28.4,8.3c-2.5-1.4-5.7-0.5-7.1,2.1c-0.2,0.4-0.4,0.9-0.5,1.3c1.5-2.3,4.5-3.2,6.9-1.8   c2.1,1.1,3.1,3.5,2.6,5.8c0.1-0.1,0.1-0.2,0.2-0.2C31.9,12.9,31,9.7,28.4,8.3z"/>
	
		<ellipse id="XMLID_17111_" transform="matrix(0.4798 -0.8774 0.8774 0.4798 2.1879 29.4615)" class="st3" cx="25.9" cy="12.9" rx="5.2" ry="5.2"/>
	<path id="XMLID_17110_" class="st14" d="M22.4,37.3c-3.1,1-7.7-0.6-8.8-3.7l0,0c-1.5,1.3-1.6,3.5-0.3,4.9c2.4,2.6,6.4,3.4,10.1,2.2   L22.4,37.3z"/>
	<path id="XMLID_17109_" class="st15" d="M20.2,37.6c-2.3-0.1-4.8-1.2-6-3c-0.4-0.1-0.8-0.2-1.1-0.4c-0.7,1.1-0.8,2.6,0,3.7   C15.3,38.7,17.8,38.6,20.2,37.6z"/>
	<path id="XMLID_17108_" class="st3" d="M22.4,37.3c-3.1,1-7.7-0.6-8.8-3.7l0,0c-1.5,1.3-1.6,3.5-0.3,4.9c2.4,2.6,6.4,3.4,10.1,2.2   L22.4,37.3z"/>
	<ellipse id="XMLID_17107_" class="st0" cx="24" cy="45.2" rx="14.2" ry="1.8"/>
	<path id="XMLID_17106_" class="st14" d="M24.9,20.2c4.3,0,7.7,3.5,7.7,7.7s-3.5,7.7-7.7,7.7v5.5c7.3,0,13.2-5.9,13.2-13.2   s-5.9-13.2-13.2-13.2V20.2z"/>
	<path id="XMLID_17105_" class="st22" d="M36.7,22.1c-1.9-3.9-5.7-6.6-10.1-7.2C25.6,16,25,17.4,25,19c0,0.4,0,0.8,0.1,1.2   c3.2,0.1,5.9,2.1,7,4.9C34.1,24.9,35.7,23.7,36.7,22.1z"/>
	<path id="XMLID_17104_" class="st3" d="M24.9,20.2c4.3,0,7.7,3.5,7.7,7.7s-3.5,7.7-7.7,7.7v5.5c7.3,0,13.2-5.9,13.2-13.2   s-5.9-13.2-13.2-13.2V20.2z"/>
	<path id="XMLID_17103_" class="st14" d="M23.9,26.4l-8.3-4.5c-0.6-0.3-0.8-1.1-0.5-1.7l5.7-10.3c0.3-0.6,1.1-0.8,1.7-0.5l8.3,4.5   c0.6,0.3,0.8,1.1,0.5,1.7l-5.7,10.3C25.2,26.5,24.5,26.7,23.9,26.4z"/>
	<path id="XMLID_17102_" class="st22" d="M26.9,23.5c-0.3,0.6-1.1,0.8-1.7,0.5L17,19.5c-0.6-0.3-0.8-1-0.5-1.6l-1.3,2.4   c-0.3,0.6-0.1,1.3,0.5,1.7l8.3,4.5c0.6,0.3,1.3,0.1,1.7-0.5l5.7-10.3c0,0,0,0,0,0L26.9,23.5z"/>
	<path id="XMLID_17101_" class="st3" d="M23.9,26.4l-8.3-4.5c-0.6-0.3-0.8-1.1-0.5-1.7l5.7-10.3c0.3-0.6,1.1-0.8,1.7-0.5l8.3,4.5   c0.6,0.3,0.8,1.1,0.5,1.7l-5.7,10.3C25.2,26.5,24.5,26.7,23.9,26.4z"/>
	<path id="XMLID_17100_" class="st18" d="M18.3,41.1c0-3.6,3-6.6,6.6-6.6s6.6,3,6.6,6.6H18.3z"/>
	<path id="XMLID_17099_" class="st25" d="M24.9,36.8c2.8,0,5.2,1.8,6.2,4.3h0.4c0-3.6-3-6.6-6.6-6.6c-3.6,0-6.6,3-6.6,6.6h0.4   C19.7,38.6,22.1,36.8,24.9,36.8z"/>
	<path id="XMLID_17098_" class="st3" d="M18.3,41.1c0-3.6,3-6.6,6.6-6.6s6.6,3,6.6,6.6H18.3z"/>
	<path id="XMLID_17097_" class="st14" d="M33.8,44.5H14.2c-0.7,0-1.2-0.6-1.2-1.2v-0.9c0-0.7,0.6-1.2,1.2-1.2h19.7   c0.7,0,1.2,0.6,1.2,1.2v0.9C35.1,43.9,34.5,44.5,33.8,44.5z"/>
	<path id="XMLID_17096_" class="st15" d="M33.8,42.9H14.2c-0.6,0-1-0.4-1.2-0.9c0,0.1-0.1,0.2-0.1,0.3v0.9c0,0.7,0.6,1.2,1.2,1.2   h19.7c0.7,0,1.2-0.6,1.2-1.2v-0.9c0-0.1,0-0.2-0.1-0.3C34.8,42.5,34.4,42.9,33.8,42.9z"/>
	<path id="XMLID_17095_" class="st3" d="M33.8,44.5H14.2c-0.7,0-1.2-0.6-1.2-1.2v-0.9c0-0.7,0.6-1.2,1.2-1.2h19.7   c0.7,0,1.2,0.6,1.2,1.2v0.9C35.1,43.9,34.5,44.5,33.8,44.5z"/>
	<path id="XMLID_17094_" class="st28" d="M16.9,36.7l-6.7-3.5C9.9,33,9.8,32.7,10,32.4l0.6-1.2c0.2-0.3,0.5-0.4,0.8-0.3l6.7,3.5   c0.3,0.2,0.4,0.5,0.3,0.8l-0.6,1.2C17.6,36.8,17.2,36.9,16.9,36.7z"/>
	
		<rect id="XMLID_17093_" x="14.9" y="24" transform="matrix(0.8774 0.4798 -0.4798 0.8774 14.4425 -6.1264)" class="st28" width="8.7" height="2.4"/>
	<path id="XMLID_17092_" class="st28" d="M31.6,7.5l-4.2-2.3C27.1,5,27,4.7,27.2,4.4l0.7-1.3c0.2-0.3,0.5-0.4,0.8-0.2l4.2,2.3   c0.3,0.2,0.4,0.5,0.2,0.8l-0.7,1.3C32.3,7.5,31.9,7.7,31.6,7.5z"/>
	<path id="XMLID_17091_" class="st24" d="M18.6,28.8l-2.1-1.1c-0.3-0.1-0.5-0.4-0.6-0.6l-1.1-2.9l7.6,4.2l-3,0.6   C19.1,29,18.8,29,18.6,28.8z"/>
	<circle id="XMLID_17090_" class="st21" cx="31.2" cy="19" r="4.2"/>
	<path id="XMLID_17089_" class="st29" d="M31.2,16.5c2,0,3.7,1.4,4.1,3.4c0.1-0.3,0.1-0.6,0.1-0.9c0-2.3-1.9-4.2-4.2-4.2   c-2.3,0-4.2,1.9-4.2,4.2c0,0.3,0,0.6,0.1,0.9C27.4,17.9,29.1,16.5,31.2,16.5z"/>
	<circle id="XMLID_17088_" class="st3" cx="31.2" cy="19" r="4.2"/>
	<circle id="XMLID_17087_" class="st30" cx="31.2" cy="19" r="1.5"/>
</g>
</svg>