<?xml version="1.0"?>
<!-- Generated by SVGo -->
<svg width="760" height="120"
     xmlns="http://www.w3.org/2000/svg"
     xmlns:xlink="http://www.w3.org/1999/xlink">
<g transform="translate(10,0)">
<text x="370" y="25" text-anchor="middle" font-size="15pt" fill="black" >Index(3)</text>
<polygon points="0,0 0,80 185,80 185,40 555,40 555,80 740,80 740,0" fill="none" stroke="black" stroke-width="1" />
<g transform="translate(0,80)">
<polygon points="0,0 10,20 0,40 185,40 195,20 185,0" fill="none" stroke="black" stroke-width="1" />
<text x="97" y="25" text-anchor="middle" font-size="15pt" fill="black" >[]int</text>
</g>
<g transform="translate(555,80)">
<polygon points="0,0 10,20 0,40 185,40 195,20 185,0" fill="none" stroke="black" stroke-width="1" />
<text x="97" y="25" text-anchor="middle" font-size="15pt" fill="black" >[int] int</text>
</g>
<g transform="translate(185,40)">
<text x="185" y="25" text-anchor="middle" font-size="15pt" fill="black" >Traverse</text>
<polygon points="0,0 0,40 185,40 185,40 185,40 185,40 370,40 370,0" fill="none" stroke="black" stroke-width="1" />
<g transform="translate(0,40)">
<polygon points="0,0 10,20 0,40 185,40 195,20 185,0" fill="none" stroke="black" stroke-width="1" />
<text x="97" y="25" text-anchor="middle" font-size="15pt" fill="black" >[]int</text>
</g>
<g transform="translate(185,40)">
<polygon points="0,0 10,20 0,40 185,40 195,20 185,0" fill="none" stroke="black" stroke-width="1" />
<text x="97" y="25" text-anchor="middle" font-size="15pt" fill="black" >[int] int</text>
</g>
</g>
</g>
</svg>
