<?xml version="1.0"?>
<!-- Generated by SVGo -->
<svg width="1220" height="160"
     xmlns="http://www.w3.org/2000/svg"
     xmlns:xlink="http://www.w3.org/1999/xlink">
<g transform="translate(10,0)">
<g transform="translate(0,0)">
<text x="500" y="25" text-anchor="middle" font-size="15pt" fill="black" >TupleOf(&gt; 10 , &lt; 40)</text>
<polygon points="0,0 0,120 100,120 100,40 900,40 900,120 1000,120 1000,0" fill="none" stroke="black" stroke-width="1" />
<g transform="translate(0,120)">
<polygon points="0,0 10,20 0,40 100,40 110,20 100,0" fill="none" stroke="black" stroke-width="1" />
<text x="55" y="25" text-anchor="middle" font-size="15pt" fill="black" >int</text>
</g>
<g transform="translate(900,120)">
<polygon points="0,0 10,20 0,40 100,40 110,20 100,0" fill="none" stroke="black" stroke-width="1" />
<text x="55" y="25" text-anchor="middle" font-size="15pt" fill="black" >Tuple2[bool,bool]</text>
</g>
<g transform="translate(100,40)">
<text x="200" y="25" text-anchor="middle" font-size="15pt" fill="black" >&gt; 10</text>
<polygon points="0,0 0,80 100,80 100,40 300,40 300,80 400,80 400,0" fill="none" stroke="black" stroke-width="1" />
<g transform="translate(0,80)">
<polygon points="0,0 10,20 0,40 100,40 110,20 100,0" fill="none" stroke="black" stroke-width="1" />
<text x="55" y="25" text-anchor="middle" font-size="15pt" fill="black" >int</text>
</g>
<g transform="translate(300,80)">
<polygon points="0,0 10,20 0,40 100,40 110,20 100,0" fill="none" stroke="black" stroke-width="1" />
<text x="55" y="25" text-anchor="middle" font-size="15pt" fill="black" >bool</text>
</g>
<g transform="translate(100,40)">
<text x="100" y="25" text-anchor="middle" font-size="15pt" fill="black" >&gt;</text>
<polygon points="0,0 0,40 100,40 100,40 100,40 100,40 200,40 200,0" fill="none" stroke="black" stroke-width="1" />
<g transform="translate(0,40)">
<polygon points="0,0 10,20 0,40 100,40 110,20 100,0" fill="none" stroke="black" stroke-width="1" />
<text x="55" y="25" text-anchor="middle" font-size="15pt" fill="black" >int</text>
</g>
<g transform="translate(100,40)">
<polygon points="0,0 10,20 0,40 100,40 110,20 100,0" fill="none" stroke="black" stroke-width="1" />
<text x="55" y="25" text-anchor="middle" font-size="15pt" fill="black" >bool</text>
</g>
</g>
</g>
<g transform="translate(500,40)">
<text x="200" y="25" text-anchor="middle" font-size="15pt" fill="black" >&lt; 40</text>
<polygon points="0,0 0,80 100,80 100,40 300,40 300,80 400,80 400,0" fill="none" stroke="black" stroke-width="1" />
<g transform="translate(0,80)">
<polygon points="0,0 10,20 0,40 100,40 110,20 100,0" fill="none" stroke="black" stroke-width="1" />
<text x="55" y="25" text-anchor="middle" font-size="15pt" fill="black" >int</text>
</g>
<g transform="translate(300,80)">
<polygon points="0,0 10,20 0,40 100,40 110,20 100,0" fill="none" stroke="black" stroke-width="1" />
<text x="55" y="25" text-anchor="middle" font-size="15pt" fill="black" >bool</text>
</g>
<g transform="translate(100,40)">
<text x="100" y="25" text-anchor="middle" font-size="15pt" fill="black" >&lt;</text>
<polygon points="0,0 0,40 100,40 100,40 100,40 100,40 200,40 200,0" fill="none" stroke="black" stroke-width="1" />
<g transform="translate(0,40)">
<polygon points="0,0 10,20 0,40 100,40 110,20 100,0" fill="none" stroke="black" stroke-width="1" />
<text x="55" y="25" text-anchor="middle" font-size="15pt" fill="black" >int</text>
</g>
<g transform="translate(100,40)">
<polygon points="0,0 10,20 0,40 100,40 110,20 100,0" fill="none" stroke="black" stroke-width="1" />
<text x="55" y="25" text-anchor="middle" font-size="15pt" fill="black" >bool</text>
</g>
</g>
</g>
</g>
<g transform="translate(1000,80)">
<text x="100" y="25" text-anchor="middle" font-size="15pt" fill="black" >&amp;&amp;</text>
<polygon points="0,0 0,40 100,40 100,40 100,40 100,40 200,40 200,0" fill="none" stroke="black" stroke-width="1" />
<g transform="translate(0,40)">
<polygon points="0,0 10,20 0,40 100,40 110,20 100,0" fill="none" stroke="black" stroke-width="1" />
<text x="55" y="25" text-anchor="middle" font-size="15pt" fill="black" >bool</text>
</g>
<g transform="translate(100,40)">
<polygon points="0,0 10,20 0,40 100,40 110,20 100,0" fill="none" stroke="black" stroke-width="1" />
<text x="55" y="25" text-anchor="middle" font-size="15pt" fill="black" >bool</text>
</g>
</g>
</g>
</svg>
