<?xml version="1.0"?>
<!-- Generated by SVGo -->
<svg width="1130" height="120"
     xmlns="http://www.w3.org/2000/svg"
     xmlns:xlink="http://www.w3.org/1999/xlink">
<g transform="translate(10,0)">
<text x="555" y="25" text-anchor="middle" font-size="15pt" fill="black" >Compose IxMap(left)</text>
<polygon points="0,0 0,80 185,80 185,40 925,40 925,80 1110,80 1110,0" fill="none" stroke="black" stroke-width="1" />
<g transform="translate(0,80)">
<polygon points="0,0 10,20 0,40 185,40 195,20 185,0" fill="none" stroke="black" stroke-width="1" />
<text x="97" y="25" text-anchor="middle" font-size="15pt" fill="black" >[]Comment</text>
</g>
<g transform="translate(925,80)">
<polygon points="0,0 10,20 0,40 185,40 195,20 185,0" fill="none" stroke="black" stroke-width="1" />
<text x="97" y="25" text-anchor="middle" font-size="15pt" fill="black" >[int] string</text>
</g>
<g transform="translate(185,40)">
<text x="185" y="25" text-anchor="middle" font-size="15pt" fill="black" >Traverse</text>
<polygon points="0,0 0,40 185,40 185,40 185,40 185,40 370,40 370,0" fill="none" stroke="black" stroke-width="1" />
<g transform="translate(0,40)">
<polygon points="0,0 10,20 0,40 185,40 195,20 185,0" fill="none" stroke="black" stroke-width="1" />
<text x="97" y="25" text-anchor="middle" font-size="15pt" fill="black" >[]Comment</text>
</g>
<g transform="translate(185,40)">
<polygon points="0,0 10,20 0,40 185,40 195,20 185,0" fill="none" stroke="black" stroke-width="1" />
<text x="97" y="25" text-anchor="middle" font-size="15pt" fill="black" >[int] Comment</text>
</g>
</g>
<g transform="translate(555,40)">
<text x="185" y="25" text-anchor="middle" font-size="15pt" fill="black" >Comment.title</text>
<polygon points="0,0 0,40 185,40 185,40 185,40 185,40 370,40 370,0" fill="none" stroke="black" stroke-width="1" />
<g transform="translate(0,40)">
<polygon points="0,0 10,20 0,40 185,40 195,20 185,0" fill="none" stroke="black" stroke-width="1" />
<text x="97" y="25" text-anchor="middle" font-size="15pt" fill="black" >Comment</text>
</g>
<g transform="translate(185,40)">
<polygon points="0,0 10,20 0,40 185,40 195,20 185,0" fill="none" stroke="black" stroke-width="1" />
<text x="97" y="25" text-anchor="middle" font-size="15pt" fill="black" >string</text>
</g>
</g>
</g>
</svg>
