<?xml version="1.0"?>
<!-- Generated by SVGo -->
<svg width="760" height="120"
     xmlns="http://www.w3.org/2000/svg"
     xmlns:xlink="http://www.w3.org/1999/xlink">
<g transform="translate(10,0)">
<text x="185" y="25" text-anchor="middle" font-size="15pt" fill="black" >ParseInt(10,0)</text>
<polygon points="0,0 0,40 185,40 185,40 185,40 185,40 370,40 370,0" fill="none" stroke="black" stroke-width="1" />
<g transform="translate(0,40)">
<polygon points="0,0 10,20 0,40 185,40 195,20 185,0" fill="none" stroke="black" stroke-width="1" />
<text x="97" y="25" text-anchor="middle" font-size="15pt" fill="black" >string</text>
</g>
<g transform="translate(185,40)">
<polygon points="0,0 10,20 0,40 185,40 195,20 185,0" fill="none" stroke="black" stroke-width="1" />
<text x="97" y="25" text-anchor="middle" font-size="15pt" fill="black" >int64</text>
</g>
<g transform="translate(0,80)">
<polygon points="0,0 -10,20 0,40 185,40 175,20 185,0" fill="none" stroke="black" stroke-width="1" />
<text x="87" y="25" text-anchor="middle" font-size="15pt" fill="black" >int64</text>
</g>
<g transform="translate(185,80)">
<polygon points="0,0 -10,20 0,40 185,40 175,20 185,0" fill="none" stroke="black" stroke-width="1" />
<text x="87" y="25" text-anchor="middle" font-size="15pt" fill="black" >int64</text>
</g>
<g transform="translate(370,40)">
<polygon points="0,0 10,20 -10,60 0,80 185,80 185,0" fill="none" stroke="black" stroke-width="1" />
<text x="92" y="45" text-anchor="middle" font-size="15pt" fill="black" >+ 10</text>
</g>
</g>
</svg>
