<?xml version="1.0"?>
<!-- Generated by SVGo -->
<svg width="1500" height="200"
     xmlns="http://www.w3.org/2000/svg"
     xmlns:xlink="http://www.w3.org/1999/xlink">
<g transform="translate(10,0)">
<g transform="translate(0,80)">
<text x="185" y="25" text-anchor="middle" font-size="15pt" fill="black" >BlogPost.ratings</text>
<polygon points="0,0 0,40 185,40 185,40 185,40 185,40 370,40 370,0" fill="none" stroke="black" stroke-width="1" />
<g transform="translate(0,40)">
<polygon points="0,0 10,20 0,40 185,40 195,20 185,0" fill="none" stroke="black" stroke-width="1" />
<text x="97" y="25" text-anchor="middle" font-size="15pt" fill="black" >BlogPost</text>
</g>
<g transform="translate(185,40)">
<polygon points="0,0 10,20 0,40 185,40 195,20 185,0" fill="none" stroke="black" stroke-width="1" />
<text x="97" y="25" text-anchor="middle" font-size="15pt" fill="black" >[]Rating</text>
</g>
<g transform="translate(0,80)">
<polygon points="0,0 -10,20 0,40 185,40 175,20 185,0" fill="none" stroke="black" stroke-width="1" />
<text x="87" y="25" text-anchor="middle" font-size="15pt" fill="black" >BlogPost</text>
</g>
<g transform="translate(185,80)">
<polygon points="0,0 -10,20 0,40 185,40 175,20 185,0" fill="none" stroke="black" stroke-width="1" />
<text x="87" y="25" text-anchor="middle" font-size="15pt" fill="black" >[]Rating</text>
</g>
</g>
<g transform="translate(370,40)">
<g transform="translate(0,40)">
<text x="185" y="25" text-anchor="middle" font-size="15pt" fill="black" >Traverse</text>
<polygon points="0,0 0,40 185,40 185,40 185,40 185,40 370,40 370,0" fill="none" stroke="black" stroke-width="1" />
<g transform="translate(0,40)">
<polygon points="0,0 10,20 0,40 185,40 195,20 185,0" fill="none" stroke="black" stroke-width="1" />
<text x="97" y="25" text-anchor="middle" font-size="15pt" fill="black" >[]Rating</text>
</g>
<g transform="translate(185,40)">
<polygon points="0,0 10,20 0,40 185,40 195,20 185,0" fill="none" stroke="black" stroke-width="1" />
<text x="97" y="25" text-anchor="middle" font-size="15pt" fill="black" >[int] Rating</text>
</g>
<g transform="translate(0,80)">
<polygon points="0,0 -10,20 0,40 185,40 175,20 185,0" fill="none" stroke="black" stroke-width="1" />
<text x="87" y="25" text-anchor="middle" font-size="15pt" fill="black" >[]Rating</text>
</g>
<g transform="translate(185,80)">
<polygon points="0,0 -10,20 0,40 185,40 175,20 185,0" fill="none" stroke="black" stroke-width="1" />
<text x="87" y="25" text-anchor="middle" font-size="15pt" fill="black" >Rating</text>
</g>
</g>
<g transform="translate(370,40)">
<text x="185" y="25" text-anchor="middle" font-size="15pt" fill="black" >Rating.stars</text>
<polygon points="0,0 0,40 185,40 185,40 185,40 185,40 370,40 370,0" fill="none" stroke="black" stroke-width="1" />
<g transform="translate(0,40)">
<polygon points="0,0 10,20 0,40 185,40 195,20 185,0" fill="none" stroke="black" stroke-width="1" />
<text x="97" y="25" text-anchor="middle" font-size="15pt" fill="black" >Rating</text>
</g>
<g transform="translate(185,40)">
<polygon points="0,0 10,20 0,40 185,40 195,20 185,0" fill="none" stroke="black" stroke-width="1" />
<text x="97" y="25" text-anchor="middle" font-size="15pt" fill="black" >int</text>
</g>
<g transform="translate(0,80)">
<polygon points="0,0 -10,20 0,40 185,40 175,20 185,0" fill="none" stroke="black" stroke-width="1" />
<text x="87" y="25" text-anchor="middle" font-size="15pt" fill="black" >Rating</text>
</g>
<g transform="translate(185,80)">
<polygon points="0,0 -10,20 0,40 185,40 175,20 185,0" fill="none" stroke="black" stroke-width="1" />
<text x="87" y="25" text-anchor="middle" font-size="15pt" fill="black" >int</text>
</g>
</g>
</g>
<g transform="translate(1110,120)">
<polygon points="0,0 10,20 -10,60 0,80 185,80 185,0" fill="none" stroke="black" stroke-width="1" />
<text x="92" y="45" text-anchor="middle" font-size="15pt" fill="black" >+ 1</text>
</g>
</g>
</svg>
