<?xml version="1.0"?>
<!-- Generated by SVGo -->
<svg width="1340" height="500"
     xmlns="http://www.w3.org/2000/svg"
     xmlns:xlink="http://www.w3.org/1999/xlink">
<polygon points="0,0 0,120 110,120 110,40 1210,40 1210,120 1320,120 1320,0" fill="none" stroke="white" stroke-width="1" />
<text x="660" y="25" text-anchor="middle" font-size="30px" fill="white" >Filtered(BindOp(Binary(==),3),Traverse) | BindIsoOp(Binary(*),10) | BindIsoOp(Binary(+),1)</text>
<g transform="translate(0,120)">
<polygon points="0,0 10,20 0,40 110,40 120,20 110,0" fill="none" stroke="white" stroke-width="1" />
<text x="60" y="30" text-anchor="middle" font-size="30px" fill="white" >[]int</text>
</g>
<g transform="translate(1210,120)">
<polygon points="0,0 10,20 0,40 110,40 120,20 110,0" fill="none" stroke="white" stroke-width="1" />
<text x="60" y="30" text-anchor="middle" font-size="30px" fill="white" >int</text>
</g>
<g transform="translate(110,40)">
<polygon points="0,0 0,80 110,80 110,40 330,40 330,80 440,80 440,0" fill="none" stroke="white" stroke-width="1" />
<text x="220" y="25" text-anchor="middle" font-size="30px" fill="white" >Filtered(BindOp(Binary(==),3),Traverse)</text>
<g transform="translate(0,80)">
<polygon points="0,0 10,20 0,40 110,40 120,20 110,0" fill="none" stroke="white" stroke-width="1" />
<text x="60" y="30" text-anchor="middle" font-size="30px" fill="white" >[]int</text>
</g>
<g transform="translate(330,80)">
<polygon points="0,0 10,20 0,40 110,40 120,20 110,0" fill="none" stroke="white" stroke-width="1" />
<text x="60" y="30" text-anchor="middle" font-size="30px" fill="white" >int</text>
</g>
<g transform="translate(110,40)">
<polygon points="0,0 0,40 110,40 110,40 110,40 110,40 220,40 220,0" fill="none" stroke="white" stroke-width="1" />
<text x="110" y="25" text-anchor="middle" font-size="30px" fill="white" >Traverse</text>
<g transform="translate(0,40)">
<polygon points="0,0 10,20 0,40 110,40 120,20 110,0" fill="none" stroke="white" stroke-width="1" />
<text x="60" y="30" text-anchor="middle" font-size="30px" fill="white" >[]int</text>
</g>
<g transform="translate(110,40)">
<polygon points="0,0 10,20 0,40 110,40 120,20 110,0" fill="none" stroke="white" stroke-width="1" />
<text x="60" y="30" text-anchor="middle" font-size="30px" fill="white" >int</text>
</g>
</g>
</g>
<g transform="translate(550,40)">
<polygon points="0,0 0,80 110,80 110,40 550,40 550,80 660,80 660,0" fill="none" stroke="white" stroke-width="1" />
<text x="330" y="25" text-anchor="middle" font-size="30px" fill="white" >BindIsoOp(Binary(*),10) | BindIsoOp(Binary(+),1)</text>
<g transform="translate(0,80)">
<polygon points="0,0 10,20 0,40 110,40 120,20 110,0" fill="none" stroke="white" stroke-width="1" />
<text x="60" y="30" text-anchor="middle" font-size="30px" fill="white" >int</text>
</g>
<g transform="translate(550,80)">
<polygon points="0,0 10,20 0,40 110,40 120,20 110,0" fill="none" stroke="white" stroke-width="1" />
<text x="60" y="30" text-anchor="middle" font-size="30px" fill="white" >int</text>
</g>
<g transform="translate(110,40)">
<polygon points="0,0 0,40 110,40 110,40 110,40 110,40 220,40 220,0" fill="none" stroke="white" stroke-width="1" />
<text x="110" y="25" text-anchor="middle" font-size="30px" fill="white" >*</text>
<g transform="translate(0,40)">
<polygon points="0,0 10,20 0,40 110,40 120,20 110,0" fill="none" stroke="white" stroke-width="1" />
<text x="60" y="30" text-anchor="middle" font-size="30px" fill="white" >int</text>
</g>
<g transform="translate(110,40)">
<polygon points="0,0 10,20 0,40 110,40 120,20 110,0" fill="none" stroke="white" stroke-width="1" />
<text x="60" y="30" text-anchor="middle" font-size="30px" fill="white" >int</text>
</g>
</g>
<g transform="translate(330,40)">
<polygon points="0,0 0,40 110,40 110,40 110,40 110,40 220,40 220,0" fill="none" stroke="white" stroke-width="1" />
<text x="110" y="25" text-anchor="middle" font-size="30px" fill="white" >+</text>
<g transform="translate(0,40)">
<polygon points="0,0 10,20 0,40 110,40 120,20 110,0" fill="none" stroke="white" stroke-width="1" />
<text x="60" y="30" text-anchor="middle" font-size="30px" fill="white" >int</text>
</g>
<g transform="translate(110,40)">
<polygon points="0,0 10,20 0,40 110,40 120,20 110,0" fill="none" stroke="white" stroke-width="1" />
<text x="60" y="30" text-anchor="middle" font-size="30px" fill="white" >int</text>
</g>
</g>
</g>
</svg>
